<svg width="31" height="32" viewBox="0 0 31 32" fill="none" xmlns="http://www.w3.org/2000/svg">
<path d="M30.8181 3.05176e-05L28.0851 28.7967L15.7998 32L3.54833 28.8012L0.818146 3.05176e-05H30.8181Z" fill="#264DE4"/>
<path d="M15.8181 29.5515L25.7453 26.963L28.0809 2.35492H15.8181V29.5515Z" fill="#2965F1"/>
<path d="M15.8181 13.0369H7.07703L7.41364 16.5692H15.8181V13.0369Z" fill="#EBEBEB"/>
<path d="M15.8182 5.8873H15.8052H6.4007L6.7421 9.41968H15.8182V5.8873Z" fill="#EBEBEB"/>
<path d="M7.58148 18.3354L8.10765 23.8817L15.8009 25.8904L15.8182 25.8859V22.2107L15.8017 22.2149L11.619 21.1526L11.3516 18.3354H9.31912H7.58148Z" fill="#EBEBEB"/>
<path d="M20.4299 16.5692L19.9939 21.1503L15.8051 22.2137V25.8887L23.5045 23.8817L23.561 23.2849L24.4435 13.9854L24.5352 13.0369L25.2132 5.8873H15.8051V9.41968H21.0973L20.7556 13.0369H15.8051V16.5692H20.4299Z" fill="white"/>
</svg>
