<svg width="30" height="30" viewBox="0 0 30 30" fill="none" xmlns="http://www.w3.org/2000/svg">
<g clip-path="url(#clip0_2_35)">
<path d="M29.4325 13.6626L16.3338 0.565068C15.5788 -0.188682 14.3563 -0.188682 13.5988 0.565068L10.885 3.28382L14.335 6.73382C15.1413 6.46507 16.0588 6.64632 16.6963 7.28507C17.3413 7.92882 17.5188 8.85757 17.2438 9.66007L20.5663 12.9851C21.3725 12.7063 22.3 12.8876 22.9413 13.5288C23.8425 14.4288 23.8425 15.8838 22.9413 16.7838C22.0425 17.6826 20.59 17.6826 19.6913 16.7838C19.0175 16.1076 18.8488 15.1126 19.1863 14.2888L16.075 11.1938V19.3501C16.295 19.4576 16.5025 19.6038 16.685 19.7851C17.5763 20.6863 17.5763 22.1388 16.685 23.0351C15.7863 23.9363 14.3238 23.9363 13.4238 23.0351C12.525 22.1363 12.525 20.6863 13.4238 19.7876C13.6513 19.5626 13.9075 19.3926 14.18 19.2801V11.0438C13.9088 10.9301 13.65 10.7663 13.43 10.5426C12.7488 9.86132 12.585 8.86507 12.935 8.03132L9.545 4.62507L0.5625 13.6013C-0.1875 14.3576 -0.1875 15.5813 0.5625 16.3376L13.6625 29.4338C14.4175 30.1888 15.64 30.1888 16.395 29.4338L29.4325 16.3963C30.1888 15.6426 30.1888 14.4188 29.4325 13.6626Z" fill="#F1502F"/>
</g>
<defs>
<clipPath id="clip0_2_35">
<rect width="30" height="30" fill="white"/>
</clipPath>
</defs>
</svg>
