<svg width="30" height="30" viewBox="0 0 30 30" fill="none" xmlns="http://www.w3.org/2000/svg">
<g clip-path="url(#clip0_2_37)">
<path d="M15 0.371246C6.7125 0.371246 0 7.0875 0 15.3712C0 22 4.2975 27.6212 10.2562 29.6025C11.0062 29.7437 11.2812 29.28 11.2812 28.8812C11.2812 28.525 11.2688 27.5812 11.2625 26.3312C7.09 27.2362 6.21 24.3187 6.21 24.3187C5.5275 22.5875 4.54125 22.125 4.54125 22.125C3.1825 21.195 4.64625 21.2137 4.64625 21.2137C6.1525 21.3187 6.94375 22.7587 6.94375 22.7587C8.28125 25.0525 10.455 24.39 11.3125 24.0062C11.4475 23.0362 11.8338 22.375 12.2625 22C8.93125 21.625 5.43 20.335 5.43 14.5875C5.43 12.95 6.01125 11.6125 6.97375 10.5625C6.805 10.1837 6.29875 8.65875 7.105 6.5925C7.105 6.5925 8.36125 6.19 11.23 8.13C12.43 7.79625 13.705 7.63125 14.98 7.62375C16.255 7.63125 17.53 7.79625 18.73 8.13C21.58 6.19 22.8362 6.5925 22.8362 6.5925C23.6425 8.65875 23.1362 10.1837 22.9862 10.5625C23.9425 11.6125 24.5237 12.95 24.5237 14.5875C24.5237 20.35 21.0175 21.6187 17.68 21.9875C18.205 22.4375 18.6925 23.3575 18.6925 24.7625C18.6925 26.77 18.6738 28.3825 18.6738 28.87C18.6738 29.2637 18.9362 29.7325 19.705 29.5825C25.7063 27.615 30 21.99 30 15.3712C30 7.0875 23.2837 0.371246 15 0.371246Z" fill="white"/>
</g>
<defs>
<clipPath id="clip0_2_37">
<rect width="30" height="30" fill="white"/>
</clipPath>
</defs>
</svg>
