<svg width="32" height="30" viewBox="0 0 32 30" fill="none" xmlns="http://www.w3.org/2000/svg">
<g clip-path="url(#clip0_2_33)">
<path d="M16.0013 6C11.7346 6 9.06792 8 8.00125 12C9.60125 10 11.4679 9.25 13.6013 9.75C14.8186 10.035 15.6879 10.8625 16.6519 11.78C18.2213 13.2725 20.0359 15 24.0013 15C28.2679 15 30.9346 13 32.0013 9C30.4013 11 28.5346 11.75 26.4013 11.25C25.1839 10.965 24.3146 10.1375 23.3506 9.22C21.7826 7.7275 19.9679 6 16.0013 6ZM8.00125 15C3.73458 15 1.06792 17 0.00125122 21C1.60125 19 3.46792 18.25 5.60125 18.75C6.81859 19.035 7.68792 19.8625 8.65192 20.78C10.2213 22.2725 12.0359 24 16.0013 24C20.2679 24 22.9346 22 24.0013 18C22.4013 20 20.5346 20.75 18.4013 20.25C17.1839 19.965 16.3146 19.1375 15.3506 18.22C13.7826 16.7275 11.9679 15 8.00125 15Z" fill="#38B2AC"/>
</g>
<defs>
<clipPath id="clip0_2_33">
<rect width="32" height="30" fill="white"/>
</clipPath>
</defs>
</svg>
